<svg width="1043" height="890" viewBox="0 0 1043 890" fill="none" xmlns="http://www.w3.org/2000/svg">
<g id="Group 1">
<g id="Group">
<path id="Vector" d="M441.409 779.077C402.425 717.808 370.048 666.87 369.448 665.909C368.787 664.948 368.546 664.167 368.847 664.167C369.087 664.167 400.803 711.921 439.247 770.247C477.751 828.574 509.347 876.328 509.527 876.448C509.707 876.568 545.868 827.613 589.778 767.725C633.748 707.836 669.909 658.821 670.149 658.761C670.45 658.761 670.45 659.121 670.209 659.542C668.828 661.764 513.551 889.243 512.951 889.843C512.47 890.384 494.87 863.173 441.409 779.077Z" fill="white"/>
<path id="Vector_2" d="M754.786 642.541C746.556 641.039 740.189 637.616 734.302 631.428C727.094 623.8 723.85 615.03 723.85 602.896C723.79 590.342 727.094 581.812 735.143 573.703C743.072 565.654 750.28 562.951 763.375 563.011C770.103 563.071 771.845 563.311 776.05 564.633C790.406 569.318 799.597 581.151 801.699 597.55C802.48 603.737 801.759 611.005 799.777 617.312C796.113 628.966 786.321 638.517 774.788 641.58C770.403 642.781 759.171 643.322 754.786 642.541ZM769.983 633.231C775.749 631.969 779.954 629.747 783.739 625.722C789.685 619.535 792.208 612.567 792.148 602.596C792.088 586.017 782.777 574.424 767.64 572.201C751.482 569.798 737.846 578.869 734.242 594.426C733.221 598.811 733.401 608.422 734.543 612.747C738.687 628.245 753.344 636.715 769.983 633.231Z" fill="white"/>
<path id="Vector_3" d="M820.98 641.043L819.539 639.541L819.659 603.5L819.839 567.459L821.821 565.537C823.683 563.615 823.924 563.555 828.549 563.555C832.874 563.555 833.414 563.675 834.976 565.177C836.238 566.438 839.842 574.788 849.573 599.235C856.661 617.076 862.608 631.672 862.788 631.672C862.968 631.732 868.314 618.517 874.741 602.419C881.169 586.321 887.175 571.484 888.076 569.442C890.359 564.336 892.281 563.134 897.868 563.375C901.712 563.615 902.072 563.735 903.995 565.837L906.037 568.06V603.801V639.601L904.535 641.043C903.634 642.004 902.373 642.545 901.231 642.545C900.09 642.545 898.829 642.004 897.928 641.043L896.426 639.601V606.444C896.426 588.183 896.246 573.406 896.066 573.586C895.885 573.827 889.758 588.784 882.43 606.864C870.056 637.319 868.915 639.902 867.053 641.163C863.629 643.446 858.703 642.665 856.661 639.421C856.18 638.64 849.993 623.623 842.905 606.083C835.817 588.483 829.87 574.067 829.63 574.067C829.33 574.067 829.149 588.904 829.149 607.044V640.082L827.588 641.283C825.425 642.965 822.842 642.905 820.98 641.043Z" fill="white"/>
<path id="Vector_4" d="M949.527 641.884C948.806 641.524 947.905 640.562 947.545 639.782C947.064 638.7 946.884 628.309 946.884 605.603V572.866H934.57C922.256 572.866 922.196 572.866 920.754 571.364C918.952 569.562 918.832 567.519 920.514 565.417L921.715 563.855H951.689C979.321 563.855 981.664 563.915 982.805 564.937C984.787 566.558 984.787 569.802 982.805 571.664C981.604 572.805 980.763 572.866 968.989 572.866H956.495V606.384C956.495 638.04 956.435 640.022 955.414 640.923C953.972 642.244 951.149 642.665 949.527 641.884Z" fill="white"/>
<path id="Vector_5" d="M613.326 639.899C609.542 638.518 607.199 635.815 605.517 630.889C605.157 629.868 604.736 622.119 604.556 613.71L604.196 598.392L602.394 597.491L600.592 596.59L603.295 596.47C614.768 595.869 619.513 596.11 614.648 597.131L612.845 597.491L613.026 614.13C613.206 629.388 613.326 631.009 614.407 633.232C616.149 636.656 619.153 638.518 622.456 638.157C625.88 637.797 627.863 636.235 629.725 632.571C631.166 629.688 631.226 629.267 631.407 614.19L631.647 598.753L629.605 597.671C627.382 596.47 627.202 596.53 633.809 596.17C637.353 595.99 638.014 596.53 634.891 597.131L632.788 597.551L632.608 614.19C632.428 630.709 632.428 630.889 630.866 633.833C628.583 638.338 625.46 640.26 619.994 640.56C617.17 640.68 614.768 640.44 613.326 639.899Z" fill="white"/>
<path id="Vector_6" d="M665.705 639.78C657.295 637.197 652.85 627.346 654.412 614.791C656.214 600.255 665.885 593.227 680.482 595.81L684.686 596.591L684.806 601.997C684.927 606.442 684.806 607.223 684.206 606.262C679.761 599.534 677.178 597.371 672.733 597.011C670.03 596.771 669.369 596.951 667.747 598.333C664.864 600.735 663.662 604.94 663.723 612.509C663.843 627.646 669.91 640.861 676.097 639.359C678.499 638.758 679.04 636.476 678.86 628.427C678.68 621.219 678.68 621.218 677.058 620.438C676.097 620.017 675.376 619.477 675.376 619.236C675.376 618.996 678.92 618.816 683.185 618.816C690.813 618.816 692.856 619.176 689.192 619.957L687.389 620.317V627.406V634.494L685.467 636.356C682.224 639.479 678.74 640.741 673.273 640.681C670.63 640.681 667.207 640.26 665.705 639.78Z" fill="white"/>
<path id="Vector_7" d="M351.607 639.422C351.607 639.242 352.448 638.882 353.409 638.641L355.211 638.221L355.091 618.338L354.911 598.396L353.289 597.615C352.328 597.194 351.607 596.654 351.607 596.413C351.607 596.173 355.151 595.993 359.416 595.993C367.044 595.993 369.087 596.353 365.423 597.134L363.621 597.495V617.978V638.521L367.705 638.221C374.613 637.74 378.217 635.037 379.959 629.03C381.1 624.946 381.821 625.066 381.401 629.271C381.221 631.373 381.04 634.617 381.04 636.479V639.843H366.324C358.214 639.843 351.607 639.662 351.607 639.422Z" fill="white"/>
<path id="Vector_8" d="M397.86 639.482C397.86 639.242 398.821 638.882 399.962 638.701L402.065 638.281V618.458V598.696L399.962 597.675C398.821 597.134 397.86 596.533 397.86 596.353C397.86 596.173 404.347 595.993 412.276 595.993H426.693V602V608.006L425.251 605.003C422.909 599.957 419.785 597.975 413.057 597.254L409.874 596.954V606.505V616.116H412.577C415.22 616.116 418.884 614.794 418.884 613.833C418.884 613.533 419.244 612.872 419.665 612.331C420.266 611.49 420.386 612.271 420.386 617.017C420.386 621.762 420.266 622.543 419.665 621.702C419.244 621.161 418.884 620.501 418.884 620.2C418.884 619.239 415.22 617.918 412.577 617.918H409.874V628.129V638.341H413.418C419.845 638.341 423.149 636.479 425.972 631.313L427.834 627.829L427.894 630.292C427.894 631.673 427.714 634.376 427.534 636.299L427.173 639.843H412.517C404.468 639.843 397.86 639.662 397.86 639.482Z" fill="white"/>
<path id="Vector_9" d="M442.913 639.421C442.913 639.241 443.754 638.881 444.715 638.641C445.736 638.4 446.517 638.16 446.517 638.04C446.517 637.92 448.859 628.97 451.683 618.157C454.506 607.345 456.728 597.854 456.548 597.073C456.308 595.632 456.308 595.632 460.753 595.812L465.258 595.992L471.085 615.815C474.328 626.747 477.272 636.238 477.632 636.959C478.053 637.679 478.893 638.46 479.554 638.641C482.257 639.482 480.395 639.842 473.247 639.842C469.102 639.842 465.739 639.662 465.739 639.421C465.739 639.121 466.279 638.941 466.94 638.941C467.601 638.941 468.321 638.58 468.502 638.1C468.682 637.619 467.901 634.196 466.82 630.411L464.777 623.623H458.23H451.683L449.881 630.471C448.739 634.916 448.319 637.439 448.739 637.559C449.04 637.679 449.881 638.16 450.481 638.58C451.502 639.361 451.142 639.481 447.238 639.662C444.895 639.722 442.913 639.662 442.913 639.421ZM463.936 621.221C463.936 620.38 458.35 601.939 457.99 601.518C457.749 601.278 456.308 605.663 454.866 611.309L452.103 621.521H458.05C461.293 621.521 463.936 621.401 463.936 621.221Z" fill="white"/>
<path id="Vector_10" d="M495.172 639.6C495.172 639.3 496.133 638.879 497.274 638.699L499.376 638.279V618.456V598.694L497.274 597.672C496.133 597.132 495.172 596.411 495.172 596.111C495.172 595.75 499.797 595.63 507.065 595.81C520.58 596.171 523.824 596.952 527.909 600.916C531.573 604.46 532.654 607.584 532.894 615.332C533.075 620.919 532.955 622.781 531.873 626.265C529.531 633.954 524.125 638.218 515.174 639.54C510.069 640.261 495.172 640.321 495.172 639.6ZM515.355 637.798C518.418 636.416 520.22 633.954 521.722 629.148C525.266 617.915 522.863 603.559 516.856 599.595C515.174 598.453 509.888 596.952 507.365 596.891C507.245 596.891 507.185 606.082 507.185 617.315V637.798L508.567 638.339C510.669 639.18 512.651 638.999 515.355 637.798Z" fill="white"/>
<path id="Vector_11" d="M549.833 639.662C549.833 639.302 550.673 638.881 551.635 638.641L553.437 638.22V618.458V598.635L551.635 597.614C550.673 597.074 549.833 596.413 549.833 596.173C549.833 595.452 568.153 595.572 572.358 596.293C578.365 597.254 581.368 600.377 581.308 605.483C581.248 609.388 579.927 612.031 577.164 613.893L575.001 615.334L578.245 616.896C582.81 619.179 584.252 621.942 583.951 627.769C583.711 633.295 581.909 635.938 576.923 638.22C573.74 639.722 572.899 639.782 561.726 640.022C553.737 640.203 549.833 640.082 549.833 639.662ZM571.878 637.319C574.28 635.698 575.842 631.913 575.902 627.528C576.022 620.56 572.719 617.317 565.57 617.317H561.846L561.966 627.408L562.147 637.439L564.249 638.16C566.652 639.001 569.775 638.641 571.878 637.319ZM569.054 614.614C571.637 613.292 572.899 610.469 572.959 606.204C572.959 600.497 570.556 597.915 564.549 597.074L561.846 596.713V606.144V615.515H564.549C566.111 615.515 568.093 615.094 569.054 614.614Z" fill="white"/>
<path id="Vector_12" d="M507.484 576.648C477.45 575.687 452.222 571.662 440.208 565.956C435.222 563.553 433.36 561.811 432.88 558.808C432.579 556.765 432.759 556.405 435.282 554.002C440.088 549.377 451.501 545.833 470.242 543.13C486.28 540.847 493.909 540.367 517.095 540.187C528.989 540.066 536.137 540.066 533.013 540.187C499.856 541.328 486.34 542.349 469.641 544.932C451.321 547.815 437.505 552.561 435.342 556.705C434.501 558.387 434.501 558.688 435.402 560.009C438.526 564.755 452.282 569.26 472.645 572.203C489.404 574.606 500.577 575.387 524.304 575.747C543.946 576.107 546.288 576.228 538.72 576.528C529.77 576.888 516.615 576.948 507.484 576.648Z" fill="white"/>
<path id="Vector_13" d="M553.918 575.445C554.639 575.325 555.72 575.325 556.321 575.445C556.861 575.625 556.261 575.746 554.939 575.686C553.618 575.686 553.137 575.565 553.918 575.445Z" fill="#050505"/>
<path id="Vector_14" d="M529.71 557.845C553.618 557.245 568.575 555.923 583.351 552.98C597.888 550.097 605.517 545.952 602.693 542.528C601.312 540.906 594.704 538.143 588.277 536.581C575.542 533.458 559.624 531.656 536.979 530.815C528.749 530.514 521.902 530.094 521.721 529.914C521.181 529.433 540.222 529.613 551.936 530.214C586.895 532.076 607.919 538.143 605.156 545.411C603.294 550.337 591.04 554.301 569.656 557.005C564.129 557.665 555.36 557.966 536.618 558.146C511.51 558.326 511.39 558.326 529.71 557.845Z" fill="white"/>
<path id="Vector_15" d="M502.559 557.427C503.099 557.307 504.06 557.307 504.661 557.427C505.202 557.608 504.721 557.728 503.58 557.728C502.439 557.728 501.958 557.608 502.559 557.427Z" fill="#050505"/>
<path id="Vector_16" d="M545.208 540.607C546.409 540.487 548.451 540.487 549.713 540.607C550.914 540.727 549.893 540.847 547.43 540.847C544.967 540.847 543.946 540.727 545.208 540.607Z" fill="#050505"/>
<path id="Vector_17" d="M510.97 530.396C512.892 530.275 515.835 530.275 517.577 530.396C519.319 530.516 517.757 530.576 514.093 530.576C510.489 530.576 509.047 530.516 510.97 530.396Z" fill="#050505"/>
<path id="Vector_18" d="M136.984 292.525C61.7788 176.714 0.389039 81.746 0.569243 81.5658C0.929653 81.1453 235.556 79.7637 290.339 79.8238C314.846 79.8839 322.475 80.004 315.567 80.3043C310.101 80.6047 241.623 82.2265 163.414 83.9685C85.1454 85.7705 20.8723 87.3323 20.572 87.5726C20.1515 87.8129 198.855 380.105 272.198 499.16C273.339 501.022 274.18 502.704 274 502.885C273.88 503.065 212.19 408.397 136.984 292.525Z" fill="white"/>
<path id="Vector_19" d="M767.88 501.262C767.88 501.082 824.525 408.516 893.783 295.528C963.042 182.6 1020.23 89.3137 1020.89 88.2324C1021.55 87.1512 1022.03 86.1301 1021.91 86.0099C1021.79 85.8898 953.131 84.2679 869.396 82.3458C785.661 80.4836 717.002 78.8017 716.882 78.6816C716.762 78.6215 716.762 78.3813 716.882 78.2611C717.063 78.0809 982.985 79.4024 1025.87 79.8229L1042.09 80.0031L905.677 290.122C830.652 405.693 768.962 500.541 768.601 500.901C768.181 501.322 767.88 501.442 767.88 501.262Z" fill="white"/>
<path id="Vector_20" d="M650.147 370.191C639.335 367.849 630.986 358.598 627.261 344.843C625.339 337.875 625.339 323.578 627.201 316.37C630.745 302.795 639.275 291.982 649.427 288.078C654.172 286.276 662.401 285.855 667.567 287.177C677.418 289.7 684.987 297.809 689.072 310.243C690.273 314.027 690.634 316.49 690.874 323.458C691.474 340.758 687.69 352.051 678.079 361.782C670.27 369.711 660.84 372.534 650.147 370.191Z" fill="#166EF1"/>
<path id="Vector_21" d="M382.543 369.354C370.89 365.33 362.36 354.758 358.696 339.921C356.834 332.352 356.834 319.317 358.756 312.169C361.639 301.237 367.947 292.647 375.996 288.683C380.08 286.64 380.2 286.64 388.25 286.64H396.419L401.104 288.983C409.334 293.008 415.821 300.756 419.425 310.788C422.068 317.996 422.669 322.741 422.368 333.253C422.128 341.302 421.888 343.104 420.446 347.309C418.224 353.797 416.181 357.401 412.397 361.485C408.613 365.63 404.708 368.213 400.323 369.474C395.818 370.796 386.508 370.736 382.543 369.354Z" fill="#166EF1"/>
<path id="Vector_22" d="M288.837 234.621L289.257 217.562L292.2 203.446C293.762 195.637 295.264 188.849 295.504 188.249C295.684 187.708 296.405 187.228 297.126 187.228C299.709 187.228 306.436 189.27 311.242 191.432C319.892 195.517 325.658 200.923 329.202 208.612C330.764 211.916 330.884 212.697 330.884 219.725C330.884 227.173 330.884 227.233 328.602 231.798C323.135 242.911 310.101 250.299 294.303 251.32L288.416 251.681L288.837 234.621Z" fill="#166EF1"/>
<path id="Vector_23" d="M750.701 250.9C735.503 248.857 722.649 239.727 718.924 228.194C718.144 225.731 717.963 223.448 718.083 218.283C718.324 212.096 718.504 211.195 720.306 207.53C725.112 197.739 735.804 190.291 748.959 187.528C751.662 186.987 753.884 186.807 754.185 187.107C755.506 188.429 759.651 213.477 760.612 225.671C760.912 229.816 761.393 237.324 761.633 242.37L761.993 251.5L758.209 251.44C756.107 251.38 752.743 251.14 750.701 250.9Z" fill="#166EF1"/>
<path id="Vector_24" d="M636.331 236.122C626.299 233.419 617.95 223.808 614.766 211.194C611.342 197.559 613.505 180.259 619.932 169.567C624.437 162.178 632.186 155.391 636.151 155.391C637.532 155.391 638.133 155.09 638.133 154.49C638.133 153.889 638.794 153.589 640.235 153.589C642.217 153.589 642.338 153.709 642.338 155.691C642.338 157.253 642.097 157.793 641.316 157.793C640.476 157.793 640.415 157.914 641.256 158.875C641.737 159.415 642.338 160.316 642.578 160.797C642.758 161.277 643.419 162.419 644.02 163.26C644.56 164.101 646.182 166.563 647.564 168.666C649.005 170.768 651.348 173.772 652.85 175.273C654.351 176.835 655.553 178.397 655.553 178.757C655.553 180.199 663.542 187.347 668.047 189.93C668.648 190.29 670.029 191.251 671.23 192.213C672.792 193.354 674.054 193.834 675.856 193.834H678.379V197.679C678.379 205.968 673.753 218.583 668.227 225.25C663.482 231.017 657.295 235.041 651.288 236.423C647.503 237.324 640.175 237.144 636.331 236.122Z" fill="#166EF1"/>
<path id="Vector_25" d="M396.838 235.642C390.651 233.66 383.563 227.833 379.238 221.166C374.973 214.678 371.429 202.485 371.429 194.496C371.429 193.114 371.55 193.054 374.553 193.414C377.436 193.775 377.917 193.655 379.959 192.033C381.161 191.012 382.362 190.231 382.602 190.231C383.023 190.231 387.828 186.506 392.333 182.602C393.715 181.401 394.856 180.139 394.856 179.719C394.856 179.358 395.337 178.517 395.937 177.857C398.04 175.634 402.725 169.627 404.347 167.225C405.248 165.903 406.449 164.101 406.99 163.26C407.591 162.419 408.311 161.098 408.612 160.377C408.912 159.716 409.513 158.935 409.813 158.695C410.173 158.515 410.474 157.373 410.474 156.232C410.474 154.31 410.594 154.19 412.456 154.19C416.961 154.19 426.332 162.419 430.597 170.048C435.462 178.758 437.204 187.347 436.724 199.721C436.363 208.912 435.282 213.297 431.678 220.565C428.975 225.911 422.908 232.038 417.982 234.381C414.679 236.003 413.717 236.183 406.87 236.303C401.764 236.423 398.58 236.183 396.838 235.642Z" fill="#166EF1"/>
<path id="Vector_26" d="M537.7 163.195C536.558 158.03 536.198 157.129 535.057 156.828C533.495 156.408 533.074 154.906 527.969 130.458C525.866 120.607 524.665 115.982 524.425 116.943C524.244 117.784 523.223 122.89 522.202 128.356C521.181 133.822 519.379 142.172 518.238 146.977C517.096 151.782 516.075 156.288 515.895 157.068C515.715 157.849 515.114 158.39 514.393 158.39C513.612 158.39 513.072 158.931 512.831 160.072C511.81 164.577 510.849 168.181 510.549 168.421C509.888 169.142 501.899 166.499 496.673 163.916C489.585 160.372 481.836 152.924 479.073 146.977C471.805 131.359 477.091 116.342 492.408 108.834C500.157 105.049 505.563 104.088 516.736 104.569C521.541 104.749 529.831 104.989 535.117 105.109C546.169 105.41 550.194 106.251 557.342 109.735C565.451 113.639 571.098 120.066 573.08 127.575C574.341 132.38 573.861 141.331 572.119 145.836C568.394 155.206 558.483 163.736 546.71 167.641C539.201 170.163 539.321 170.223 537.7 163.195Z" fill="#166EF1"/>
<path id="Vector_27" d="M460.519 69.7181C457.876 68.8771 453.371 67.7959 450.487 67.1952C446.283 66.4143 445.201 65.9338 445.201 65.1529C445.201 64.5522 445.502 64.2519 445.982 64.4321C446.463 64.6123 447.484 63.1707 448.745 60.6478C453.13 51.6976 461.18 41.8464 468.928 35.8396L472.112 33.3768L468.448 29.9529C466.405 28.0908 460.038 22.5044 454.332 17.5788C445.382 9.83003 444 8.3884 444 6.88669C444 4.12355 445.622 1.66075 447.364 1.60068C447.724 1.60068 450.307 3.58293 453.07 5.98567C455.833 8.44846 463.102 14.5154 469.169 19.501L480.281 28.5113L484.186 26.529C488.931 24.1863 495.118 21.9038 501.846 20.1017C506.351 18.9003 508.093 18.7802 521.788 18.7802C534.583 18.7802 537.827 19.0205 543.954 20.1017C552.003 21.6034 561.614 24.6068 567.14 27.43C569.182 28.4512 571.225 29.172 571.585 29.0519C572.546 28.6915 590.627 13.9147 599.096 6.58635C602.7 3.52287 605.944 1 606.364 1C607.746 1 609.248 3.16246 609.548 5.62526L609.848 7.90785L600.358 16.0171C595.192 20.4621 589.125 25.8082 586.962 27.7904C584.8 29.8328 582.037 32.1754 580.835 32.9563L578.613 34.458L581.917 37.2812C588.344 42.8676 594.831 52.2983 598.135 60.9481C599.036 63.2908 600.177 65.273 600.598 65.273C601.739 65.273 601.559 66.955 600.358 67.2553C599.757 67.4355 596.694 68.1563 593.51 68.9372L587.683 70.2587L577.592 67.7959C544.734 59.6266 511.457 59.8669 478.9 68.3966C473.734 69.7181 468.568 70.9195 467.427 71.0396C466.285 71.0997 463.162 70.499 460.519 69.7181Z" fill="#166EF1"/>
</g>
<g id="Group_2">
<path id="Vector_28" d="M676.395 198.338C676.636 196.176 676.455 195.635 675.735 195.635C675.194 195.635 674.773 195.935 674.773 196.356C674.773 196.896 674.593 196.896 674.053 196.356C673.632 195.935 672.911 195.635 672.431 195.635C671.95 195.635 670.629 194.914 669.427 194.013C668.226 193.052 666.844 192.091 666.244 191.73C661.739 189.148 653.75 181.999 653.75 180.558C653.75 180.197 652.548 178.636 651.047 177.074C649.545 175.572 647.202 172.569 645.76 170.466C644.379 168.364 642.757 165.901 642.217 165.06C641.616 164.219 640.955 163.078 640.655 162.597C638.672 158.753 637.291 157.131 636.27 157.371C635.369 157.612 635.128 157.371 635.128 156.29C635.128 152.806 650.145 151.365 657.474 154.128C662.88 156.23 667.565 160.014 671.049 165.18C676.515 173.41 678.378 180.317 678.378 192.812C678.378 200.38 678.317 201.041 677.296 201.041C676.335 201.041 676.215 200.621 676.395 198.338Z" fill="#166EF1"/>
<path id="Vector_29" d="M371.851 198.818C371.19 198.217 371.37 187.405 372.031 183.02C374.193 169.564 381.221 158.992 391.253 154.247C394.256 152.805 395.217 152.685 402.065 152.685C410.655 152.685 415.28 153.887 415.28 156.109C415.28 156.95 414.98 157.19 414.379 156.95C413.778 156.77 413.178 157.25 412.577 158.572C412.096 159.653 411.135 161.335 410.535 162.296C409.874 163.317 408.973 164.639 408.552 165.36C405.849 169.745 401.044 176.112 397.74 179.656C397.139 180.317 396.659 181.158 396.659 181.518C396.659 181.939 395.517 183.2 394.136 184.401C389.33 188.546 384.825 192.03 384.285 192.03C383.984 192.09 382.783 192.871 381.642 193.832C380.5 194.853 379.299 195.634 378.999 195.634C377.677 195.634 373.833 197.737 373.833 198.457C373.833 199.298 372.511 199.539 371.851 198.818Z" fill="#166EF1"/>
</g>
<g id="Group_3">
<path id="Vector_30" d="M405.61 448.463C382.664 431.103 371.191 421.312 357.315 407.436C342.418 392.479 334.969 382.868 319.412 358.3C308.059 340.4 302.773 329.047 297.607 311.447C292.621 294.327 289.978 277.208 288.897 255.643L288.657 249.877L293.522 249.517C308.599 248.315 321.514 240.747 326.8 229.994C328.963 225.669 329.083 225.129 329.083 219.723C329.083 214.677 328.902 213.536 327.401 210.412C322.715 200.381 312.564 192.812 299.889 189.869L295.264 188.848L297.006 182.36C302.533 161.216 310.341 142.235 320.072 126.256C324.397 119.168 330.584 110.398 331.365 110.338C332.206 110.338 331.786 114.543 330.705 116.465C328.062 121.391 324.217 131.542 323.316 135.867C323.076 137.189 322.295 140.853 321.634 143.977C320.132 150.944 319.952 162.778 321.274 166.502C321.754 167.824 322.175 169.746 322.175 170.827C322.175 171.848 322.415 172.929 322.776 173.11C323.076 173.29 323.376 174.011 323.376 174.671C323.376 175.272 323.616 176.293 323.917 176.894C324.217 177.435 325.358 179.837 326.44 182.12C327.881 185.003 329.924 187.826 333.227 191.25C335.81 194.013 338.213 196.236 338.513 196.236C338.814 196.236 339.595 196.777 340.315 197.437C341.036 198.098 342.117 198.639 342.718 198.639C343.319 198.639 343.799 198.939 343.799 199.239C343.799 199.6 344.1 199.84 344.4 199.84C344.76 199.84 345.001 199.179 345.001 198.338C345.001 197.497 345.301 196.837 345.601 196.837C345.962 196.837 346.202 196.296 346.202 195.635C346.202 194.674 346.623 194.434 348.305 194.434C350.407 194.434 350.407 194.434 350.407 197.137C350.407 199.42 350.587 199.84 351.548 199.84C352.329 199.84 352.81 200.321 352.93 201.222C353.11 202.483 353.35 202.543 357.915 202.483C362.841 202.363 366.505 201.822 367.526 201.041C367.887 200.741 369.388 200.381 370.89 200.14L373.713 199.72L374.374 202.723C375.455 207.889 378.519 215.518 381.102 219.482C384.466 224.588 390.292 229.934 395.278 232.397C399.122 234.259 399.663 234.379 405.97 234.379C412.037 234.379 412.878 234.259 416.182 232.637C421.167 230.235 427.174 224.108 429.877 218.762C433.121 212.274 434.563 206.928 434.923 199.72C435.464 189.388 433.481 180.258 428.736 171.668C425.612 166.142 418.464 159.054 413.659 156.831C411.076 155.63 409.874 154.729 409.874 154.008C409.874 153.047 410.295 152.927 412.698 153.047L415.581 153.227L417.143 149.983C420.386 143.196 421.287 141.093 421.287 140.312C421.287 139.832 421.828 138.39 422.489 137.069C423.15 135.747 423.69 134.246 423.69 133.645C423.69 133.044 423.93 132.083 424.231 131.482C424.892 130.281 425.732 126.977 426.694 122.112C427.595 117.667 427.655 102.469 426.754 100.848C426.393 100.127 426.093 98.9254 426.093 98.0844C426.093 97.2435 425.853 96.4025 425.492 96.2223C425.132 96.0421 424.892 95.3814 424.892 94.7807C424.892 93.1588 421.348 86.6114 419.065 83.9684C416.662 81.1452 414.079 80.3643 414.079 82.4667C414.079 84.1486 411.496 85.7104 408.673 85.7104C406.991 85.7104 406.871 85.5302 406.871 83.668C406.871 82.4066 407.231 81.5056 407.772 81.2653C408.253 81.0851 408.673 80.5445 408.673 80.0039C408.673 79.3431 409.394 79.1028 411.556 79.0428C413.118 78.9827 413.899 78.8626 413.358 78.6824C412.758 78.5622 412.277 78.2018 412.277 77.9015C412.277 77.6612 411.376 77.0005 410.295 76.4599C409.274 75.9192 407.592 74.9581 406.571 74.2974C405.61 73.6967 404.168 73.1561 403.447 73.1561C402.726 73.096 401.945 72.8558 401.765 72.4953C401.585 72.195 400.324 71.8947 399.062 71.8947C397.801 71.8947 396.539 71.6544 396.359 71.294C396.179 70.9936 394.677 70.6933 392.995 70.6933C389.511 70.6933 388.911 69.3718 392.034 68.3506C403.207 64.8066 413.659 63.3049 426.994 63.3049C439.969 63.2448 449.159 64.3261 459.431 67.0291C463.095 67.9902 466.339 68.8312 466.639 68.9513C466.999 69.0114 468.201 68.8913 469.342 68.651C471.685 68.1704 475.049 69.2517 485.02 73.7568C496.553 78.9227 510.188 87.2721 519.98 95.1411L525.266 99.4059L531.393 94.6605C543.707 84.9895 558.844 76.3397 573.26 70.7534C582.15 67.2694 583.952 66.8489 585.995 67.6298C587.136 68.0503 588.698 67.8701 591.941 67.0892C600.831 64.7465 610.202 63.7854 623.117 63.7854C635.971 63.7854 639.936 64.266 650.928 66.8489C655.914 68.0503 657.356 68.5909 657.356 69.3718C657.356 70.6933 654.713 71.8947 651.889 71.8947C650.628 71.8947 649.427 72.195 649.246 72.4953C649.066 72.8558 648.285 73.096 647.565 73.1561C646.844 73.1561 645.462 73.6967 644.441 74.2974C643.48 74.9581 641.738 75.9192 640.717 76.4599C638.795 77.4209 638.074 78.5022 639.335 78.5022C639.696 78.5022 639.936 79.5834 639.936 80.9049C639.936 82.8872 639.756 83.3076 638.735 83.3076C638.074 83.3076 637.533 83.608 637.533 83.9083C637.533 84.2687 636.572 84.509 635.431 84.509C633.809 84.509 633.328 84.2687 633.328 83.4878C633.268 81.6858 630.085 85.9506 627.442 91.2967C624.739 96.7629 624.498 97.724 623.657 104.572C623.357 107.155 623.057 109.618 622.997 109.978C622.877 110.939 623.657 118.387 624.378 123.253C625.039 127.218 628.223 137.85 630.025 141.874C630.445 142.895 631.106 144.337 631.406 145.178C633.629 150.584 636.152 155.329 636.812 155.329C638.314 155.45 637.473 156.591 635.01 157.852C631.286 159.775 625.219 165.841 622.216 170.707C614.947 182.36 613.025 199.179 617.47 212.394C619.693 219.062 621.735 222.426 626.12 226.931C638.134 239.065 654.593 237.683 666.426 223.447C670.03 219.062 673.874 210.953 675.376 204.405C676.758 198.458 677.418 197.678 679.521 199.42C680.061 199.84 681.683 200.561 683.185 200.981C684.687 201.402 686.369 202.003 686.909 202.303C688.531 203.144 698.022 202.964 699.584 202.123C701.446 201.041 701.626 200.681 702.046 197.377C702.467 194.494 702.467 194.434 704.629 194.434H706.792L706.492 197.137C706.311 198.639 706.251 199.84 706.311 199.84C706.972 199.84 711.417 197.137 711.417 196.717C711.417 196.476 711.838 196.236 712.318 196.236C714.12 196.236 722.049 187.406 724.272 182.841C725.473 180.498 726.434 178.155 726.434 177.735C726.434 177.375 726.735 177.014 727.035 177.014C727.395 177.014 727.636 176.233 727.636 175.272C727.636 174.251 727.936 173.29 728.236 173.11C728.597 172.929 728.837 171.968 728.837 171.067C728.837 170.166 729.257 168.124 729.798 166.562C730.639 164.16 730.759 162.057 730.459 154.549C730.218 149.022 729.738 144.097 729.137 141.874C728.537 139.892 727.996 137.369 727.816 136.288C727.636 135.207 727.275 134.185 726.975 134.005C726.674 133.825 726.434 133.104 726.434 132.323C726.434 131.603 726.194 130.762 725.954 130.461C725.653 130.101 724.932 128.239 724.332 126.256C723.731 124.274 723.07 122.412 722.77 122.052C722.47 121.751 722.229 120.61 722.229 119.529C722.229 115.805 724.092 117.066 728.236 123.673C736.285 136.528 744.515 154.308 749.26 168.965C752.083 177.855 754.726 188.067 754.186 188.427C753.945 188.667 752.023 189.148 749.921 189.568C737.847 191.911 726.795 199.78 722.109 209.271C719.646 214.256 719.106 221.284 720.728 226.33C724.812 238.944 738.808 248.075 756.228 249.396L761.574 249.817L761.394 256.544C760.553 286.519 753.044 318.535 741.451 341.601C736.766 350.852 717.424 380.225 709.195 390.557C699.163 403.111 681.924 419.87 663.843 434.527C654.112 442.456 635.731 456.332 635.01 456.332C633.629 456.332 628.403 450.445 624.618 444.678C620.834 438.852 620.414 438.371 619.513 439.212C618.552 440.113 618.191 439.572 614.827 432.785C604.736 412.241 593.383 381.006 581.009 340.159C575.663 322.319 575.182 320.337 576.083 319.676C577.285 318.775 577.825 321.118 569.476 290.843C559.985 256.124 539.021 171.908 539.021 168.364C539.021 167.884 540.643 167.163 542.926 166.502C545.028 165.962 548.812 164.46 551.215 163.258C569.236 154.188 576.804 136.949 568.695 123.073C562.448 112.381 546.77 105.713 530.912 107.035C526.407 107.395 525.806 107.575 525.806 108.596C525.806 109.197 525.386 109.738 524.905 109.738C524.365 109.738 524.004 109.197 524.004 108.296C524.004 107.095 523.644 106.854 521.241 106.494C504.122 104.151 486.522 111.299 480.575 123.073C478.232 127.698 477.451 132.924 478.352 137.549C479.614 144.097 482.137 148.542 487.903 154.188C493.61 159.835 499.316 163.258 506.945 165.601C510.309 166.622 511.21 167.103 511.029 167.884C498.355 223.687 490.186 256.725 478.833 298.532C474.328 315.231 474.087 316.493 475.049 317.213C476.01 317.934 475.95 318.475 473.907 325.743C460.932 370.975 446.696 411.581 436.845 431.223C434.202 436.509 433.722 437.11 432.881 436.389C432.1 435.728 431.859 435.788 431.379 436.509C425.913 446 420.807 452.908 417.683 455.13L416.001 456.332L405.61 448.463ZM665.285 367.431C677.058 362.985 686.128 350.311 688.591 334.813C689.732 328.026 689.072 317.814 687.21 312.048C681.203 293.366 666.366 284.236 651.169 289.942C641.077 293.727 632.548 304.659 629.003 318.175C627.201 325.203 627.201 336.255 629.064 343.043C631.887 353.555 638.554 362.865 645.642 366.229C652.07 369.353 659.158 369.773 665.285 367.431ZM398.522 367.671C402.907 366.409 406.811 363.826 410.595 359.682C416.963 352.774 420.086 344.484 420.567 333.252C420.927 324.722 420.146 319.556 417.623 312.588C414.019 302.557 407.532 294.808 399.302 290.783C394.737 288.501 394.437 288.441 388.25 288.441C382.243 288.441 381.702 288.561 377.798 290.483C360.679 298.893 353.951 326.043 363.622 347.368C370.83 363.286 385.066 371.635 398.522 367.671Z" fill="white"/>
<path id="Vector_31" d="M676.577 195.335C676.577 193.052 676.757 192.632 677.778 192.632C678.799 192.632 678.98 193.052 678.98 195.335C678.98 197.618 678.799 198.038 677.778 198.038C676.757 198.038 676.577 197.618 676.577 195.335Z" fill="white"/>
<path id="Vector_32" d="M639.335 154.491C639.335 153.53 639.696 152.989 640.236 152.989C640.717 152.989 641.137 152.749 641.137 152.449C641.137 152.088 643.66 151.908 646.844 151.908C652.37 151.908 652.55 151.968 652.55 153.29C652.55 154.611 652.37 154.671 647.625 154.671C644.862 154.611 641.918 154.912 641.017 155.272C639.455 155.933 639.335 155.873 639.335 154.491Z" fill="white"/>
<path id="Vector_33" d="M406.15 154.365C405.549 154.245 405.069 153.584 405.069 152.924C405.069 152.023 405.489 151.782 407.171 151.782C409.033 151.782 409.274 151.963 409.274 153.284C409.274 154.786 408.613 155.026 406.15 154.365Z" fill="white"/>
</g>
<g id="Group_4">
<path id="Vector_34" d="M351.068 203.804C350.647 203.263 350.047 203.023 349.746 203.203C349.446 203.384 349.206 203.203 349.206 202.903C349.206 202.002 347.584 202.062 347.223 203.023C347.043 203.564 346.803 203.564 346.142 203.083C345.662 202.723 344.58 202.242 343.679 202.002C342.718 201.822 341.997 201.341 341.997 201.041C341.997 200.681 341.517 200.44 340.916 200.44C340.315 200.44 339.234 199.9 338.513 199.239C337.793 198.578 337.012 198.038 336.711 198.038C336.411 198.038 334.008 195.815 331.425 193.112C328.122 189.628 326.079 186.805 324.638 183.921C323.556 181.639 322.415 179.236 322.115 178.696C321.814 178.095 321.574 177.074 321.574 176.473C321.574 175.812 321.334 175.091 320.974 174.911C320.673 174.731 320.373 173.65 320.373 172.629C320.373 171.547 319.952 169.625 319.472 168.304C318.09 164.459 318.33 149.322 319.832 142.174C320.493 139.05 321.274 135.386 321.514 134.065C322.475 129.38 324.578 123.913 328.963 114.543C331.906 108.175 342.718 96.342 352.149 89.0737C361.099 82.2259 373.533 75.258 384.706 70.9331C389.211 69.1911 391.073 68.7706 393.956 68.8307C395.939 68.8908 397.801 69.1911 398.101 69.4915C398.462 69.8519 399.723 70.0921 400.924 70.0921C402.186 70.0921 403.387 70.3324 403.567 70.6928C403.748 70.9932 404.468 71.2935 405.129 71.2935C406.27 71.2935 408.193 72.1945 409.875 73.516C410.355 73.8764 410.956 74.1768 411.196 74.1167C411.376 74.0566 412.217 74.5372 412.998 75.258C413.779 75.9188 414.92 76.6396 415.461 76.8799C416.062 77.1201 416.482 77.7809 416.362 78.3215C416.242 79.0423 416.602 79.4628 417.503 79.5829C418.284 79.7031 419.786 80.8444 420.867 82.1058C423.15 84.8089 426.694 91.3563 426.694 92.9782C426.694 93.5788 426.934 94.1795 427.234 94.3597C428.436 95.1406 429.757 107.815 429.337 114.843C428.916 122.412 427.475 130.581 426.033 133.284C425.733 133.885 425.492 134.846 425.492 135.446C425.492 136.047 424.952 137.549 424.291 138.87C423.63 140.192 423.09 141.633 423.09 142.114C423.09 142.534 422.489 144.216 421.828 145.718C421.107 147.22 419.966 149.683 419.305 151.184C418.584 152.686 417.683 154.308 417.263 154.848C416.782 155.389 416.482 156.05 416.542 156.35C416.842 158.272 416.362 158.633 415.281 157.251C414.62 156.47 414.079 156.05 414.079 156.35C414.079 156.59 413.659 156.29 413.118 155.629C412.518 154.909 412.097 154.728 411.917 155.149C411.677 155.689 411.076 155.689 409.574 155.209C408.433 154.848 407.472 154.428 407.472 154.248C407.472 154.008 404.889 154.068 401.765 154.248C397.681 154.548 395.218 155.089 392.935 156.17C380.201 162.057 372.272 178.095 373.473 195.755L373.894 201.582L372.212 201.942C371.311 202.182 369.989 202.543 369.328 202.843C366.926 203.864 364.403 204.225 358.156 204.465C352.93 204.645 351.668 204.525 351.068 203.804ZM381.342 140.973C398.101 110.398 411.917 85.2293 412.097 84.929C412.998 83.4273 396.72 93.3386 390.352 98.2041C366.505 116.405 352.87 141.573 349.746 173.41C348.965 181.278 349.686 197.857 350.707 196.716C350.827 196.596 364.583 171.547 381.342 140.973ZM412.277 81.445C412.277 81.1447 411.857 80.9044 411.376 80.9044C410.836 80.9044 410.655 81.2648 410.836 81.8055C411.196 82.7065 412.277 82.4662 412.277 81.445Z" fill="white"/>
<path id="Vector_35" d="M684.987 204.045C684.507 203.804 682.885 203.204 681.383 202.783C679.881 202.363 678.26 201.642 677.719 201.221C677.178 200.801 676.638 200.561 676.457 200.741C676.277 200.921 676.337 199.84 676.578 198.338C677.178 194.194 676.157 183.201 674.715 178.516C671.111 166.802 663.723 158.453 654.472 155.57C652.61 154.969 650.988 154.368 650.868 154.128C650.808 153.948 649.367 154.008 647.745 154.188C646.063 154.428 644.741 154.368 644.741 154.068C644.741 153.467 643.12 153.467 642.819 154.068C642.519 154.849 634.53 157.852 633.869 157.492C633.569 157.252 633.449 156.831 633.629 156.531C633.869 156.23 633.148 154.308 632.067 152.266C631.046 150.163 629.905 147.821 629.604 146.98C629.244 146.139 628.643 144.697 628.223 143.676C626.421 139.591 623.237 128.959 622.636 125.055C621.255 116.105 620.654 109.858 621.014 108.416C621.195 107.635 621.615 104.932 621.915 102.469C622.216 100.006 622.636 97.2433 622.817 96.2222C623.297 94.1799 626.721 86.9116 628.463 84.2686C630.265 81.5655 635.191 76.7 636.092 76.7C636.572 76.7 636.933 76.4597 636.933 76.1594C636.933 75.859 637.834 75.1983 638.915 74.6577C639.936 74.1171 641.678 73.156 642.639 72.4952C643.66 71.8945 645.042 71.3539 645.763 71.3539C646.483 71.2939 647.264 71.0536 647.444 70.6932C647.625 70.3928 648.826 70.0925 650.088 70.0925C651.349 70.0925 653.211 69.672 654.112 69.1915C655.073 68.7109 655.494 68.2904 655.013 68.2904C654.533 68.2904 654.292 68.1703 654.472 67.9901C654.653 67.8099 657.476 68.5908 660.84 69.7921C686.309 78.6222 704.629 91.8973 720.968 113.282C724.152 117.486 725.053 119.048 724.512 119.469C723.971 119.829 724.092 120.069 725.113 120.31C726.014 120.55 726.254 120.85 725.834 121.151C725.173 121.571 726.254 126.016 727.636 128.479C727.996 129.08 728.236 130.101 728.236 130.701C728.236 131.362 728.477 132.023 728.777 132.203C729.077 132.383 729.438 133.404 729.618 134.486C729.798 135.567 730.399 138.09 730.939 140.072C732.441 145.538 732.922 164.52 731.6 168.364C731.059 169.926 730.639 171.968 730.639 172.869C730.639 173.77 730.399 174.731 730.038 174.912C729.738 175.092 729.438 176.053 729.438 177.074C729.438 178.035 729.197 178.816 728.837 178.816C728.537 178.816 728.236 179.176 728.236 179.537C728.236 179.957 727.275 182.3 726.074 184.643C723.851 189.208 715.922 198.038 714.12 198.038C713.64 198.038 713.219 198.278 713.219 198.518C713.219 198.819 712.498 199.419 711.597 199.9C710.636 200.32 708.894 201.342 707.633 202.123C706.371 202.903 704.389 203.564 703.308 203.624C702.167 203.744 701.085 203.985 700.845 204.225C700.245 204.826 686.068 204.705 684.987 204.045ZM702.767 179.417C701.506 139.351 681.323 107.335 645.102 87.7526L639.696 84.8693L641.498 88.173C642.459 89.9751 656.515 115.324 672.673 144.517L702.107 197.557L702.587 193.172C702.888 190.71 702.948 184.523 702.767 179.417Z" fill="white"/>
</g>
<g id="Group_5">
<path id="Vector_36" d="M348.964 201.222C344.398 172.689 350.405 143.196 365.302 120.91C373.472 108.716 383.022 99.5861 397.259 90.3957C401.884 87.3922 412.636 81.6257 416.3 80.2441C417.562 79.7636 417.622 79.8236 417.141 80.7847C408.972 95.9219 350.225 202.663 349.865 203.024C349.564 203.324 349.144 202.603 348.964 201.222Z" fill="#B0CEFA"/>
<path id="Vector_37" d="M668.587 142.114C649.845 108.355 634.648 80.6037 634.768 80.4836C635.189 80.0031 647.383 86.0699 653.029 89.4938C661.499 94.6597 667.806 99.6454 674.774 106.673C690.091 122.051 699.282 140.071 703.306 162.897C705.228 173.469 705.048 199.178 703.066 202.722C702.766 203.263 690.211 181.158 668.587 142.114Z" fill="#B0CEFA"/>
</g>
<g id="Group_6" filter="url(#filter0_d_85_947)">
<path id="Vector_38" d="M520.639 511.113C499.315 497.117 468.56 471.468 442.37 445.818L431.979 435.547L435.042 429.48C441.349 416.805 449.639 395.421 458.108 369.532C462.373 356.557 470.302 330.487 472.645 321.777C473.245 319.615 473.906 317.633 474.146 317.392C474.387 317.152 476.669 318.173 479.312 319.735C489.644 325.862 502.559 330.668 516.434 333.431C531.752 336.554 554.818 331.929 571.637 322.318C574.581 320.636 577.043 319.375 577.103 319.495C577.224 319.615 579.626 327.664 582.57 337.395C594.283 376.74 606.597 410.498 616.688 431.042L620.353 438.49L606.537 452.066C587.315 471.047 572.839 483.661 554.638 497.297C545.748 503.904 534.575 511.713 529.95 514.476L527.787 515.798L520.639 511.113Z" fill="#166EF1"/>
<path id="Vector_39" d="M513.491 157.67C514.573 154.486 523.643 111.657 524.664 104.93C524.664 104.749 526.406 112.859 528.508 122.95C530.611 133.042 533.134 144.755 534.155 148.96C535.176 153.225 536.017 156.709 536.017 156.769C536.017 156.829 533.915 156.769 531.392 156.588C528.208 156.348 524.784 156.588 520.699 157.309C513.491 158.571 513.131 158.571 513.491 157.67Z" fill="white"/>
<path id="Vector_40" d="M519.355 99.2429C513.052 93.65 501.285 85.1 493.541 80.5357C487.718 77.1286 476.612 71.7286 470.548 69.4786C468.507 68.6428 466.886 67.9357 467.006 67.8071C467.607 67.1643 486.697 62.3428 493.001 61.1857C515.213 57.2 539.346 56.9428 560.778 60.4786C570.203 62.0214 586.412 66.2 585.992 66.9071C585.812 67.2286 584.791 67.6786 583.711 67.8714C580.109 68.7071 566.841 74.5571 559.757 78.4143C548.351 84.65 534.424 94.6143 527.159 101.686L524.758 104L519.355 99.2429Z" fill="#166EF1"/>
</g>
<path id="Vector 2" d="M444 7.5C443.6 3.9 446 1.5 447.5 1.5L450.25 3.75006L453 6.00011L480.5 28.5L472 33.5C462.833 26.3333 444.4 11.1 444 7.5Z" fill="white"/>
<path id="Vector 3" d="M610.95 6.5625C611.399 2.625 608.706 0 607.024 0L603.938 2.461L600.853 4.922L570 29.5312L579.536 35C589.821 27.1615 610.502 10.5 610.95 6.5625Z" fill="white"/>
</g>
<defs>
<filter id="filter0_d_85_947" x="407.979" y="25" width="236.374" height="505.798" filterUnits="userSpaceOnUse" color-interpolation-filters="sRGB">
<feFlood flood-opacity="0" result="BackgroundImageFix"/>
<feColorMatrix in="SourceAlpha" type="matrix" values="0 0 0 0 0 0 0 0 0 0 0 0 0 0 0 0 0 0 127 0" result="hardAlpha"/>
<feOffset dy="-9"/>
<feGaussianBlur stdDeviation="12"/>
<feComposite in2="hardAlpha" operator="out"/>
<feColorMatrix type="matrix" values="0 0 0 0 0 0 0 0 0 0 0 0 0 0 0 0 0 0 0.43 0"/>
<feBlend mode="normal" in2="BackgroundImageFix" result="effect1_dropShadow_85_947"/>
<feBlend mode="normal" in="SourceGraphic" in2="effect1_dropShadow_85_947" result="shape"/>
</filter>
</defs>
</svg>
